G04 Layer: BottomSilkscreenLayer*
G04 EasyEDA v6.5.13, 2022-08-17 10:47:09*
G04 b7dc3e68d0514606a91ca319f37642e0,153482dac41149f1974aef67bcea995d,10*
G04 Gerber Generator version 0.2*
G04 Scale: 100 percent, Rotated: No, Reflected: No *
G04 Dimensions in millimeters *
G04 leading zeros omitted , absolute positions ,4 integer and 5 decimal *
%FSLAX45Y45*%
%MOMM*%

%ADD10C,0.2032*%

%LPD*%
D10*
X3193950Y2800464D02*
G01*
X3203188Y2818937D01*
X3221659Y2837411D01*
X3240133Y2846646D01*
X3277080Y2846646D01*
X3295550Y2837411D01*
X3314024Y2818937D01*
X3323259Y2800464D01*
X3332497Y2772755D01*
X3332497Y2726575D01*
X3323259Y2698864D01*
X3314024Y2680393D01*
X3295550Y2661920D01*
X3277080Y2652684D01*
X3240133Y2652684D01*
X3221659Y2661920D01*
X3203188Y2680393D01*
X3193950Y2698864D01*
X3132990Y2846646D02*
G01*
X3132990Y2652684D01*
X3132990Y2652684D02*
G01*
X3022155Y2652684D01*
X2905777Y2846646D02*
G01*
X2924251Y2837411D01*
X2942722Y2818937D01*
X2951960Y2800464D01*
X2961195Y2772755D01*
X2961195Y2726575D01*
X2951960Y2698864D01*
X2942722Y2680393D01*
X2924251Y2661920D01*
X2905777Y2652684D01*
X2868830Y2652684D01*
X2850360Y2661920D01*
X2831886Y2680393D01*
X2822651Y2698864D01*
X2813413Y2726575D01*
X2813413Y2772755D01*
X2822651Y2800464D01*
X2831886Y2818937D01*
X2850360Y2837411D01*
X2868830Y2846646D01*
X2905777Y2846646D01*
X2752453Y2846646D02*
G01*
X2752453Y2652684D01*
X2752453Y2846646D02*
G01*
X2623144Y2652684D01*
X2623144Y2846646D02*
G01*
X2623144Y2652684D01*
X2562184Y2846646D02*
G01*
X2562184Y2652684D01*
X2562184Y2846646D02*
G01*
X2442110Y2846646D01*
X2562184Y2754284D02*
G01*
X2488293Y2754284D01*
X2562184Y2652684D02*
G01*
X2442110Y2652684D01*
X2251842Y2818937D02*
G01*
X2270315Y2837411D01*
X2298024Y2846646D01*
X2334971Y2846646D01*
X2362680Y2837411D01*
X2381150Y2818937D01*
X2381150Y2800464D01*
X2371915Y2781993D01*
X2362680Y2772755D01*
X2344206Y2763520D01*
X2288788Y2745046D01*
X2270315Y2735811D01*
X2261080Y2726575D01*
X2251842Y2708102D01*
X2251842Y2680393D01*
X2270315Y2661920D01*
X2298024Y2652684D01*
X2334971Y2652684D01*
X2362680Y2661920D01*
X2381150Y2680393D01*
X1928571Y2781993D02*
G01*
X1937806Y2754284D01*
X1956280Y2735811D01*
X1983988Y2726575D01*
X1993224Y2726575D01*
X2020933Y2735811D01*
X2039406Y2754284D01*
X2048642Y2781993D01*
X2048642Y2791228D01*
X2039406Y2818937D01*
X2020933Y2837411D01*
X1993224Y2846646D01*
X1983988Y2846646D01*
X1956280Y2837411D01*
X1937806Y2818937D01*
X1928571Y2781993D01*
X1928571Y2735811D01*
X1937806Y2689628D01*
X1956280Y2661920D01*
X1983988Y2652684D01*
X2002459Y2652684D01*
X2030171Y2661920D01*
X2039406Y2680393D01*
X1849137Y2846646D02*
G01*
X1747537Y2846646D01*
X1802955Y2772755D01*
X1775246Y2772755D01*
X1756773Y2763520D01*
X1747537Y2754284D01*
X1738299Y2726575D01*
X1738299Y2708102D01*
X1747537Y2680393D01*
X1766011Y2661920D01*
X1793720Y2652684D01*
X1821428Y2652684D01*
X1849137Y2661920D01*
X1858373Y2671155D01*
X1867611Y2689628D01*
X1538795Y2800464D02*
G01*
X1548030Y2818937D01*
X1566504Y2837411D01*
X1584977Y2846646D01*
X1621922Y2846646D01*
X1640395Y2837411D01*
X1658868Y2818937D01*
X1668104Y2800464D01*
X1677339Y2772755D01*
X1677339Y2726575D01*
X1668104Y2698864D01*
X1658868Y2680393D01*
X1640395Y2661920D01*
X1621922Y2652684D01*
X1584977Y2652684D01*
X1566504Y2661920D01*
X1548030Y2680393D01*
X1538795Y2698864D01*
X1477835Y2846646D02*
G01*
X1348526Y2652684D01*
X1348526Y2846646D02*
G01*
X1477835Y2652684D01*
X1176731Y2818937D02*
G01*
X1185966Y2837411D01*
X1213675Y2846646D01*
X1232148Y2846646D01*
X1259857Y2837411D01*
X1278331Y2809702D01*
X1287566Y2763520D01*
X1287566Y2717337D01*
X1278331Y2680393D01*
X1259857Y2661920D01*
X1232148Y2652684D01*
X1222910Y2652684D01*
X1195202Y2661920D01*
X1176731Y2680393D01*
X1167493Y2708102D01*
X1167493Y2717337D01*
X1176731Y2745046D01*
X1195202Y2763520D01*
X1222910Y2772755D01*
X1232148Y2772755D01*
X1259857Y2763520D01*
X1278331Y2745046D01*
X1287566Y2717337D01*
X2765384Y2503746D02*
G01*
X2765384Y2309784D01*
X2765384Y2503746D02*
G01*
X2691493Y2309784D01*
X2617602Y2503746D02*
G01*
X2691493Y2309784D01*
X2617602Y2503746D02*
G01*
X2617602Y2309784D01*
X2445806Y2439093D02*
G01*
X2445806Y2309784D01*
X2445806Y2411384D02*
G01*
X2464280Y2429855D01*
X2482750Y2439093D01*
X2510459Y2439093D01*
X2528933Y2429855D01*
X2547406Y2411384D01*
X2556642Y2383675D01*
X2556642Y2365202D01*
X2547406Y2337493D01*
X2528933Y2319020D01*
X2510459Y2309784D01*
X2482750Y2309784D01*
X2464280Y2319020D01*
X2445806Y2337493D01*
X2357137Y2503746D02*
G01*
X2357137Y2346728D01*
X2347899Y2319020D01*
X2329428Y2309784D01*
X2310955Y2309784D01*
X2384846Y2439093D02*
G01*
X2320190Y2439093D01*
X2249995Y2439093D02*
G01*
X2249995Y2245128D01*
X2249995Y2411384D02*
G01*
X2231522Y2429855D01*
X2213048Y2439093D01*
X2185339Y2439093D01*
X2166868Y2429855D01*
X2148395Y2411384D01*
X2139160Y2383675D01*
X2139160Y2365202D01*
X2148395Y2337493D01*
X2166868Y2319020D01*
X2185339Y2309784D01*
X2213048Y2309784D01*
X2231522Y2319020D01*
X2249995Y2337493D01*
X2078200Y2466802D02*
G01*
X2059726Y2476037D01*
X2032017Y2503746D01*
X2032017Y2309784D01*
X1915640Y2503746D02*
G01*
X1943348Y2494511D01*
X1961819Y2466802D01*
X1971057Y2420620D01*
X1971057Y2392911D01*
X1961819Y2346728D01*
X1943348Y2319020D01*
X1915640Y2309784D01*
X1897166Y2309784D01*
X1869457Y2319020D01*
X1850984Y2346728D01*
X1841748Y2392911D01*
X1841748Y2420620D01*
X1850984Y2466802D01*
X1869457Y2494511D01*
X1897166Y2503746D01*
X1915640Y2503746D01*
X1780788Y2466802D02*
G01*
X1762315Y2476037D01*
X1734606Y2503746D01*
X1734606Y2309784D01*
X3967035Y624146D02*
G01*
X3967035Y430184D01*
X3967035Y624146D02*
G01*
X3846962Y624146D01*
X3967035Y531784D02*
G01*
X3893144Y531784D01*
X3730584Y624146D02*
G01*
X3749057Y614911D01*
X3767531Y596437D01*
X3776766Y577964D01*
X3786002Y550255D01*
X3786002Y504075D01*
X3776766Y476364D01*
X3767531Y457893D01*
X3749057Y439420D01*
X3730584Y430184D01*
X3693640Y430184D01*
X3675166Y439420D01*
X3656693Y457893D01*
X3647457Y476364D01*
X3638219Y504075D01*
X3638219Y550255D01*
X3647457Y577964D01*
X3656693Y596437D01*
X3675166Y614911D01*
X3693640Y624146D01*
X3730584Y624146D01*
X3577259Y624146D02*
G01*
X3577259Y430184D01*
X3577259Y624146D02*
G01*
X3494133Y624146D01*
X3466424Y614911D01*
X3457188Y605675D01*
X3447950Y587202D01*
X3447950Y568728D01*
X3457188Y550255D01*
X3466424Y541020D01*
X3494133Y531784D01*
X3577259Y531784D01*
X3512606Y531784D02*
G01*
X3447950Y430184D01*
X3244750Y624146D02*
G01*
X3244750Y485602D01*
X3235515Y457893D01*
X3217042Y439420D01*
X3189333Y430184D01*
X3170859Y430184D01*
X3143150Y439420D01*
X3124680Y457893D01*
X3115442Y485602D01*
X3115442Y624146D01*
X2925173Y596437D02*
G01*
X2943646Y614911D01*
X2971355Y624146D01*
X3008299Y624146D01*
X3036011Y614911D01*
X3054482Y596437D01*
X3054482Y577964D01*
X3045246Y559493D01*
X3036011Y550255D01*
X3017537Y541020D01*
X2962120Y522546D01*
X2943646Y513311D01*
X2934411Y504075D01*
X2925173Y485602D01*
X2925173Y457893D01*
X2943646Y439420D01*
X2971355Y430184D01*
X3008299Y430184D01*
X3036011Y439420D01*
X3054482Y457893D01*
X2864213Y624146D02*
G01*
X2864213Y430184D01*
X2864213Y624146D02*
G01*
X2744139Y624146D01*
X2864213Y531784D02*
G01*
X2790322Y531784D01*
X2864213Y430184D02*
G01*
X2744139Y430184D01*
X2540939Y624146D02*
G01*
X2494760Y430184D01*
X2448577Y624146D02*
G01*
X2494760Y430184D01*
X2448577Y624146D02*
G01*
X2402395Y430184D01*
X2356213Y624146D02*
G01*
X2402395Y430184D01*
X2295253Y624146D02*
G01*
X2295253Y430184D01*
X2169640Y624146D02*
G01*
X2169640Y430184D01*
X2234293Y624146D02*
G01*
X2104984Y624146D01*
X2044024Y624146D02*
G01*
X2044024Y430184D01*
X1914715Y624146D02*
G01*
X1914715Y430184D01*
X2044024Y531784D02*
G01*
X1914715Y531784D01*
X1637624Y624146D02*
G01*
X1711515Y430184D01*
X1637624Y624146D02*
G01*
X1563733Y430184D01*
X1683806Y494837D02*
G01*
X1591442Y494837D01*
X1502773Y624146D02*
G01*
X1502773Y430184D01*
X1502773Y624146D02*
G01*
X1419646Y624146D01*
X1391937Y614911D01*
X1382699Y605675D01*
X1373464Y587202D01*
X1373464Y568728D01*
X1382699Y550255D01*
X1391937Y541020D01*
X1419646Y531784D01*
X1502773Y531784D01*
X1438120Y531784D02*
G01*
X1373464Y430184D01*
X1312504Y624146D02*
G01*
X1312504Y430184D01*
X1312504Y624146D02*
G01*
X1247851Y624146D01*
X1220139Y614911D01*
X1201668Y596437D01*
X1192430Y577964D01*
X1183195Y550255D01*
X1183195Y504075D01*
X1192430Y476364D01*
X1201668Y457893D01*
X1220139Y439420D01*
X1247851Y430184D01*
X1312504Y430184D01*
X1122235Y624146D02*
G01*
X1122235Y485602D01*
X1113000Y457893D01*
X1094526Y439420D01*
X1066817Y430184D01*
X1048344Y430184D01*
X1020635Y439420D01*
X1002162Y457893D01*
X992926Y485602D01*
X992926Y624146D01*
X931966Y624146D02*
G01*
X931966Y430184D01*
X871006Y624146D02*
G01*
X871006Y430184D01*
X871006Y624146D02*
G01*
X741697Y430184D01*
X741697Y624146D02*
G01*
X741697Y430184D01*
X625320Y624146D02*
G01*
X643790Y614911D01*
X662264Y596437D01*
X671499Y577964D01*
X680737Y550255D01*
X680737Y504075D01*
X671499Y476364D01*
X662264Y457893D01*
X643790Y439420D01*
X625320Y430184D01*
X588373Y430184D01*
X569899Y439420D01*
X551428Y457893D01*
X542190Y476364D01*
X532955Y504075D01*
X532955Y550255D01*
X542190Y577964D01*
X551428Y596437D01*
X569899Y614911D01*
X588373Y624146D01*
X625320Y624146D01*
M02*
