G04 Layer: BottomLayer*
G04 EasyEDA v6.5.13, 2022-08-17 10:47:09*
G04 b7dc3e68d0514606a91ca319f37642e0,153482dac41149f1974aef67bcea995d,10*
G04 Gerber Generator version 0.2*
G04 Scale: 100 percent, Rotated: No, Reflected: No *
G04 Dimensions in millimeters *
G04 leading zeros omitted , absolute positions ,4 integer and 5 decimal *
%FSLAX45Y45*%
%MOMM*%

%AMMACRO1*21,1,$1,$2,0,0,$3*%
%ADD10C,0.2540*%
%ADD11MACRO1,1.7066X1.4224X90.0000*%
%ADD12MACRO1,1.7066X1.4221X90.0000*%
%ADD13MACRO1,1.7069X1.4221X90.0000*%
%ADD14R,1.4224X1.7069*%
%ADD15C,0.6100*%

%LPD*%
D10*
X2904637Y1174173D02*
G01*
X3088203Y990607D01*
X3088203Y254007D01*
X3243168Y254007D02*
G01*
X3243168Y1410469D01*
X2954522Y1699115D01*
X3342203Y254007D02*
G01*
X3243168Y254007D01*
X3596203Y254007D02*
G01*
X3596203Y1303078D01*
X3203315Y1695965D01*
X1106368Y1691901D02*
G01*
X1312768Y1485501D01*
X1312768Y254007D01*
X1411803Y254007D02*
G01*
X1312768Y254007D01*
X3751168Y254007D02*
G01*
X3751168Y204503D01*
X3687236Y140571D01*
X3253988Y140571D01*
X3202376Y192184D01*
X3202376Y970617D01*
X2996636Y1176357D01*
X3850203Y254007D02*
G01*
X3751168Y254007D01*
D11*
G01*
X1919795Y253987D03*
G01*
X1665795Y253987D03*
G01*
X1411795Y253987D03*
D12*
G01*
X1157808Y253987D03*
G01*
X903808Y253987D03*
D13*
G01*
X649808Y254000D03*
D14*
G01*
X3850195Y254000D03*
G01*
X3596195Y254000D03*
G01*
X3342195Y254000D03*
G01*
X3088195Y254000D03*
G01*
X2834195Y254000D03*
G01*
X2580195Y254000D03*
D11*
G01*
X2326195Y253987D03*
D15*
G01*
X2996636Y1176357D03*
G01*
X1106368Y1691901D03*
G01*
X3203315Y1695965D03*
G01*
X2954522Y1699115D03*
G01*
X2904637Y1174173D03*
M02*
