G04 Layer: TopSilkscreenLayer*
G04 EasyEDA v6.5.13, 2022-08-17 10:47:09*
G04 b7dc3e68d0514606a91ca319f37642e0,153482dac41149f1974aef67bcea995d,10*
G04 Gerber Generator version 0.2*
G04 Scale: 100 percent, Rotated: No, Reflected: No *
G04 Dimensions in millimeters *
G04 leading zeros omitted , absolute positions ,4 integer and 5 decimal *
%FSLAX45Y45*%
%MOMM*%

%ADD10C,0.2032*%
%ADD11C,0.1524*%
%ADD12C,0.2540*%

%LPD*%
D10*
X1281429Y2825737D02*
G01*
X1272286Y2844279D01*
X1253744Y2862821D01*
X1235455Y2871965D01*
X1198371Y2871965D01*
X1179829Y2862821D01*
X1161542Y2844279D01*
X1152144Y2825737D01*
X1143000Y2798051D01*
X1143000Y2752077D01*
X1152144Y2724137D01*
X1161542Y2705849D01*
X1179829Y2687307D01*
X1198371Y2678163D01*
X1235455Y2678163D01*
X1253744Y2687307D01*
X1272286Y2705849D01*
X1281429Y2724137D01*
X1342389Y2871965D02*
G01*
X1342389Y2678163D01*
X1342389Y2678163D02*
G01*
X1453387Y2678163D01*
X1569720Y2871965D02*
G01*
X1551178Y2862821D01*
X1532889Y2844279D01*
X1523492Y2825737D01*
X1514347Y2798051D01*
X1514347Y2752077D01*
X1523492Y2724137D01*
X1532889Y2705849D01*
X1551178Y2687307D01*
X1569720Y2678163D01*
X1606550Y2678163D01*
X1625092Y2687307D01*
X1643634Y2705849D01*
X1652778Y2724137D01*
X1662176Y2752077D01*
X1662176Y2798051D01*
X1652778Y2825737D01*
X1643634Y2844279D01*
X1625092Y2862821D01*
X1606550Y2871965D01*
X1569720Y2871965D01*
X1723136Y2871965D02*
G01*
X1723136Y2678163D01*
X1723136Y2871965D02*
G01*
X1852421Y2678163D01*
X1852421Y2871965D02*
G01*
X1852421Y2678163D01*
X1913381Y2871965D02*
G01*
X1913381Y2678163D01*
X1913381Y2871965D02*
G01*
X2033270Y2871965D01*
X1913381Y2779763D02*
G01*
X1987295Y2779763D01*
X1913381Y2678163D02*
G01*
X2033270Y2678163D01*
X2094229Y2871965D02*
G01*
X2094229Y2678163D01*
X2094229Y2871965D02*
G01*
X2177541Y2871965D01*
X2205227Y2862821D01*
X2214372Y2853677D01*
X2223770Y2835135D01*
X2223770Y2816593D01*
X2214372Y2798051D01*
X2205227Y2788907D01*
X2177541Y2779763D01*
X2094229Y2779763D01*
X2159000Y2779763D02*
G01*
X2223770Y2678163D01*
X2426970Y2871965D02*
G01*
X2426970Y2678163D01*
X2426970Y2871965D02*
G01*
X2510027Y2871965D01*
X2537713Y2862821D01*
X2546858Y2853677D01*
X2556256Y2835135D01*
X2556256Y2816593D01*
X2546858Y2798051D01*
X2537713Y2788907D01*
X2510027Y2779763D01*
X2426970Y2779763D02*
G01*
X2510027Y2779763D01*
X2537713Y2770365D01*
X2546858Y2761221D01*
X2556256Y2742679D01*
X2556256Y2714993D01*
X2546858Y2696451D01*
X2537713Y2687307D01*
X2510027Y2678163D01*
X2426970Y2678163D01*
X2672588Y2871965D02*
G01*
X2654045Y2862821D01*
X2635504Y2844279D01*
X2626359Y2825737D01*
X2617215Y2798051D01*
X2617215Y2752077D01*
X2626359Y2724137D01*
X2635504Y2705849D01*
X2654045Y2687307D01*
X2672588Y2678163D01*
X2709418Y2678163D01*
X2727959Y2687307D01*
X2746502Y2705849D01*
X2755645Y2724137D01*
X2764790Y2752077D01*
X2764790Y2798051D01*
X2755645Y2825737D01*
X2746502Y2844279D01*
X2727959Y2862821D01*
X2709418Y2871965D01*
X2672588Y2871965D01*
X2899663Y2871965D02*
G01*
X2825750Y2678163D01*
X2899663Y2871965D02*
G01*
X2973577Y2678163D01*
X2853690Y2742679D02*
G01*
X2945891Y2742679D01*
X3034538Y2871965D02*
G01*
X3034538Y2678163D01*
X3034538Y2871965D02*
G01*
X3117850Y2871965D01*
X3145536Y2862821D01*
X3154679Y2853677D01*
X3163824Y2835135D01*
X3163824Y2816593D01*
X3154679Y2798051D01*
X3145536Y2788907D01*
X3117850Y2779763D01*
X3034538Y2779763D01*
X3099308Y2779763D02*
G01*
X3163824Y2678163D01*
X3224784Y2871965D02*
G01*
X3224784Y2678163D01*
X3224784Y2871965D02*
G01*
X3289554Y2871965D01*
X3317240Y2862821D01*
X3335781Y2844279D01*
X3344925Y2825737D01*
X3354070Y2798051D01*
X3354070Y2752077D01*
X3344925Y2724137D01*
X3335781Y2705849D01*
X3317240Y2687307D01*
X3289554Y2678163D01*
X3224784Y2678163D01*
X2235200Y2376665D02*
G01*
X2235200Y2182863D01*
X2235200Y2376665D02*
G01*
X2299970Y2376665D01*
X2327656Y2367521D01*
X2345943Y2348979D01*
X2355341Y2330437D01*
X2364486Y2302751D01*
X2364486Y2256777D01*
X2355341Y2228837D01*
X2345943Y2210549D01*
X2327656Y2192007D01*
X2299970Y2182863D01*
X2235200Y2182863D01*
X2425445Y2376665D02*
G01*
X2425445Y2182863D01*
X2425445Y2376665D02*
G01*
X2545588Y2376665D01*
X2425445Y2284463D02*
G01*
X2499359Y2284463D01*
X2425445Y2182863D02*
G01*
X2545588Y2182863D01*
X2735834Y2348979D02*
G01*
X2717291Y2367521D01*
X2689606Y2376665D01*
X2652775Y2376665D01*
X2625090Y2367521D01*
X2606547Y2348979D01*
X2606547Y2330437D01*
X2615691Y2312149D01*
X2625090Y2302751D01*
X2643377Y2293607D01*
X2698750Y2275065D01*
X2717291Y2265921D01*
X2726690Y2256777D01*
X2735834Y2238235D01*
X2735834Y2210549D01*
X2717291Y2192007D01*
X2689606Y2182863D01*
X2652775Y2182863D01*
X2625090Y2192007D01*
X2606547Y2210549D01*
X2861309Y2376665D02*
G01*
X2861309Y2182863D01*
X2796793Y2376665D02*
G01*
X2926079Y2376665D01*
X2987040Y2376665D02*
G01*
X2987040Y2182863D01*
X3048000Y2376665D02*
G01*
X3048000Y2182863D01*
X3048000Y2376665D02*
G01*
X3177286Y2182863D01*
X3177286Y2376665D02*
G01*
X3177286Y2182863D01*
X3312159Y2376665D02*
G01*
X3238245Y2182863D01*
X3312159Y2376665D02*
G01*
X3386074Y2182863D01*
X3265931Y2247379D02*
G01*
X3358388Y2247379D01*
X3511550Y2376665D02*
G01*
X3511550Y2182863D01*
X3447034Y2376665D02*
G01*
X3576320Y2376665D01*
X3637279Y2376665D02*
G01*
X3637279Y2182863D01*
X3753611Y2376665D02*
G01*
X3735070Y2367521D01*
X3716781Y2348979D01*
X3707384Y2330437D01*
X3698240Y2302751D01*
X3698240Y2256777D01*
X3707384Y2228837D01*
X3716781Y2210549D01*
X3735070Y2192007D01*
X3753611Y2182863D01*
X3790695Y2182863D01*
X3808984Y2192007D01*
X3827525Y2210549D01*
X3836670Y2228837D01*
X3846068Y2256777D01*
X3846068Y2302751D01*
X3836670Y2330437D01*
X3827525Y2348979D01*
X3808984Y2367521D01*
X3790695Y2376665D01*
X3753611Y2376665D01*
X3907027Y2376665D02*
G01*
X3907027Y2182863D01*
X3907027Y2376665D02*
G01*
X4036313Y2182863D01*
X4036313Y2376665D02*
G01*
X4036313Y2182863D01*
X1795531Y1593837D02*
G01*
X1961901Y1593837D01*
X2022861Y1593837D02*
G01*
X2188977Y1593837D01*
X2249937Y1676895D02*
G01*
X2397765Y1593837D01*
X2249937Y1510779D01*
X637286Y2348979D02*
G01*
X618744Y2367521D01*
X591057Y2376665D01*
X554228Y2376665D01*
X526542Y2367521D01*
X508000Y2348979D01*
X508000Y2330437D01*
X517144Y2312149D01*
X526542Y2302751D01*
X544829Y2293607D01*
X600455Y2275065D01*
X618744Y2265921D01*
X628142Y2256777D01*
X637286Y2238235D01*
X637286Y2210549D01*
X618744Y2192007D01*
X591057Y2182863D01*
X554228Y2182863D01*
X526542Y2192007D01*
X508000Y2210549D01*
X753618Y2376665D02*
G01*
X735329Y2367521D01*
X716787Y2348979D01*
X707389Y2330437D01*
X698245Y2302751D01*
X698245Y2256777D01*
X707389Y2228837D01*
X716787Y2210549D01*
X735329Y2192007D01*
X753618Y2182863D01*
X790702Y2182863D01*
X808989Y2192007D01*
X827531Y2210549D01*
X836929Y2228837D01*
X846073Y2256777D01*
X846073Y2302751D01*
X836929Y2330437D01*
X827531Y2348979D01*
X808989Y2367521D01*
X790702Y2376665D01*
X753618Y2376665D01*
X907034Y2376665D02*
G01*
X907034Y2238235D01*
X916178Y2210549D01*
X934720Y2192007D01*
X962405Y2182863D01*
X980947Y2182863D01*
X1008634Y2192007D01*
X1027176Y2210549D01*
X1036320Y2238235D01*
X1036320Y2376665D01*
X1097279Y2376665D02*
G01*
X1097279Y2182863D01*
X1097279Y2376665D02*
G01*
X1180337Y2376665D01*
X1208023Y2367521D01*
X1217421Y2358377D01*
X1226565Y2339835D01*
X1226565Y2321293D01*
X1217421Y2302751D01*
X1208023Y2293607D01*
X1180337Y2284463D01*
X1097279Y2284463D01*
X1162050Y2284463D02*
G01*
X1226565Y2182863D01*
X1426210Y2330437D02*
G01*
X1416812Y2348979D01*
X1398270Y2367521D01*
X1379981Y2376665D01*
X1342897Y2376665D01*
X1324610Y2367521D01*
X1306068Y2348979D01*
X1296670Y2330437D01*
X1287526Y2302751D01*
X1287526Y2256777D01*
X1296670Y2228837D01*
X1306068Y2210549D01*
X1324610Y2192007D01*
X1342897Y2182863D01*
X1379981Y2182863D01*
X1398270Y2192007D01*
X1416812Y2210549D01*
X1426210Y2228837D01*
X1487170Y2376665D02*
G01*
X1487170Y2182863D01*
X1487170Y2376665D02*
G01*
X1607057Y2376665D01*
X1487170Y2284463D02*
G01*
X1560829Y2284463D01*
X1487170Y2182863D02*
G01*
X1607057Y2182863D01*
D11*
X688911Y437108D02*
G01*
X683577Y437108D01*
X672909Y442442D01*
X667575Y447776D01*
X662241Y458444D01*
X662241Y479526D01*
X667575Y490194D01*
X672909Y495528D01*
X683577Y500862D01*
X694245Y500862D01*
X704659Y495528D01*
X720661Y484860D01*
X773747Y431774D01*
X773747Y506196D01*
X916241Y442442D02*
G01*
X916241Y500862D01*
X958659Y468858D01*
X958659Y484860D01*
X963993Y495528D01*
X969327Y500862D01*
X985329Y506196D01*
X995997Y506196D01*
X1011745Y500862D01*
X1022413Y490194D01*
X1027747Y474192D01*
X1027747Y458444D01*
X1022413Y442442D01*
X1017079Y437108D01*
X1006665Y431774D01*
X1170241Y484860D02*
G01*
X1244663Y431774D01*
X1244663Y511530D01*
X1170241Y484860D02*
G01*
X1281747Y484860D01*
X1424241Y495528D02*
G01*
X1424241Y442442D01*
X1471993Y437108D01*
X1466659Y442442D01*
X1461325Y458444D01*
X1461325Y474192D01*
X1466659Y490194D01*
X1477327Y500862D01*
X1493329Y506196D01*
X1503997Y506196D01*
X1519745Y500862D01*
X1530413Y490194D01*
X1535747Y474192D01*
X1535747Y458444D01*
X1530413Y442442D01*
X1525079Y437108D01*
X1514665Y431774D01*
X1694243Y495528D02*
G01*
X1683575Y490194D01*
X1678241Y474192D01*
X1678241Y463524D01*
X1683575Y447776D01*
X1699577Y437108D01*
X1725993Y431774D01*
X1752663Y431774D01*
X1773745Y437108D01*
X1784413Y447776D01*
X1789747Y463524D01*
X1789747Y468858D01*
X1784413Y484860D01*
X1773745Y495528D01*
X1757997Y500862D01*
X1752663Y500862D01*
X1736661Y495528D01*
X1725993Y484860D01*
X1720659Y468858D01*
X1720659Y463524D01*
X1725993Y447776D01*
X1736661Y437108D01*
X1752663Y431774D01*
X1932241Y506196D02*
G01*
X2043747Y453110D01*
X1932241Y431774D02*
G01*
X1932241Y506196D01*
X2338641Y458444D02*
G01*
X2343975Y442442D01*
X2354643Y437108D01*
X2365311Y437108D01*
X2375725Y442442D01*
X2381059Y453110D01*
X2386393Y474192D01*
X2391727Y490194D01*
X2402395Y500862D01*
X2413063Y506196D01*
X2429065Y506196D01*
X2439479Y500862D01*
X2444813Y495528D01*
X2450147Y479526D01*
X2450147Y458444D01*
X2444813Y442442D01*
X2439479Y437108D01*
X2429065Y431774D01*
X2413063Y431774D01*
X2402395Y437108D01*
X2391727Y447776D01*
X2386393Y463524D01*
X2381059Y484860D01*
X2375725Y495528D01*
X2365311Y500862D01*
X2354643Y500862D01*
X2343975Y495528D01*
X2338641Y479526D01*
X2338641Y458444D01*
X2629725Y500862D02*
G01*
X2645727Y495528D01*
X2656395Y484860D01*
X2661729Y468858D01*
X2661729Y463524D01*
X2656395Y447776D01*
X2645727Y437108D01*
X2629725Y431774D01*
X2624645Y431774D01*
X2608643Y437108D01*
X2597975Y447776D01*
X2592641Y463524D01*
X2592641Y468858D01*
X2597975Y484860D01*
X2608643Y495528D01*
X2629725Y500862D01*
X2656395Y500862D01*
X2683065Y495528D01*
X2698813Y484860D01*
X2704147Y468858D01*
X2704147Y458444D01*
X2698813Y442442D01*
X2688145Y437108D01*
X2867977Y431774D02*
G01*
X2862643Y442442D01*
X2846641Y458444D01*
X2958147Y458444D01*
X2846641Y525246D02*
G01*
X2851975Y509244D01*
X2867977Y498576D01*
X2894393Y493496D01*
X2910395Y493496D01*
X2937065Y498576D01*
X2952813Y509244D01*
X2958147Y525246D01*
X2958147Y535914D01*
X2952813Y551916D01*
X2937065Y562330D01*
X2910395Y567664D01*
X2894393Y567664D01*
X2867977Y562330D01*
X2851975Y551916D01*
X2846641Y535914D01*
X2846641Y525246D01*
X3121977Y431774D02*
G01*
X3116643Y442442D01*
X3100641Y458444D01*
X3212147Y458444D01*
X3121977Y493496D02*
G01*
X3116643Y503910D01*
X3100641Y519912D01*
X3212147Y519912D01*
X3375977Y431774D02*
G01*
X3370643Y442442D01*
X3354641Y458444D01*
X3466147Y458444D01*
X3381311Y498576D02*
G01*
X3375977Y498576D01*
X3365309Y503910D01*
X3359975Y509244D01*
X3354641Y519912D01*
X3354641Y541248D01*
X3359975Y551916D01*
X3365309Y556996D01*
X3375977Y562330D01*
X3386645Y562330D01*
X3397059Y556996D01*
X3413061Y546582D01*
X3466147Y493496D01*
X3466147Y567664D01*
X3629977Y431774D02*
G01*
X3624643Y442442D01*
X3608641Y458444D01*
X3720147Y458444D01*
X3608641Y503910D02*
G01*
X3608641Y562330D01*
X3651059Y530580D01*
X3651059Y546582D01*
X3656393Y556996D01*
X3661727Y562330D01*
X3677729Y567664D01*
X3688397Y567664D01*
X3704145Y562330D01*
X3714813Y551916D01*
X3720147Y535914D01*
X3720147Y519912D01*
X3714813Y503910D01*
X3709479Y498576D01*
X3699065Y493496D01*
X3886771Y498830D02*
G01*
X3876103Y493496D01*
X3865435Y482828D01*
X3860101Y472160D01*
X3860101Y450824D01*
X3865435Y440410D01*
X3876103Y429742D01*
X3886771Y424408D01*
X3902519Y419074D01*
X3929189Y419074D01*
X3945191Y424408D01*
X3955605Y429742D01*
X3966273Y440410D01*
X3971607Y450824D01*
X3971607Y472160D01*
X3966273Y482828D01*
X3955605Y493496D01*
X3945191Y498830D01*
X3929189Y498830D01*
X3929189Y472160D02*
G01*
X3929189Y498830D01*
X3860101Y533882D02*
G01*
X3971607Y533882D01*
X3860101Y533882D02*
G01*
X3971607Y608050D01*
X3860101Y608050D02*
G01*
X3971607Y608050D01*
X3860101Y643102D02*
G01*
X3971607Y643102D01*
X3860101Y643102D02*
G01*
X3860101Y680440D01*
X3865435Y696188D01*
X3876103Y706856D01*
X3886771Y712190D01*
X3902519Y717524D01*
X3929189Y717524D01*
X3945191Y712190D01*
X3955605Y706856D01*
X3966273Y696188D01*
X3971607Y680440D01*
X3971607Y643102D01*
X2996059Y1620253D02*
G01*
X2996059Y1511287D01*
X2996059Y1620253D02*
G01*
X3032381Y1620253D01*
X3048129Y1615173D01*
X3058289Y1604759D01*
X3063623Y1594345D01*
X3068703Y1578597D01*
X3068703Y1552689D01*
X3063623Y1537195D01*
X3058289Y1526781D01*
X3048129Y1516367D01*
X3032381Y1511287D01*
X2996059Y1511287D01*
X3175891Y1604759D02*
G01*
X3165477Y1615173D01*
X3149729Y1620253D01*
X3129155Y1620253D01*
X3113407Y1615173D01*
X3102993Y1604759D01*
X3102993Y1594345D01*
X3108327Y1583931D01*
X3113407Y1578597D01*
X3123821Y1573517D01*
X3155063Y1563103D01*
X3165477Y1558023D01*
X3170557Y1552689D01*
X3175891Y1542275D01*
X3175891Y1526781D01*
X3165477Y1516367D01*
X3149729Y1511287D01*
X3129155Y1511287D01*
X3113407Y1516367D01*
X3102993Y1526781D01*
X3246503Y1620253D02*
G01*
X3246503Y1511287D01*
X3210181Y1620253D02*
G01*
X3282825Y1620253D01*
X977772Y1617459D02*
G01*
X967359Y1627873D01*
X951864Y1632953D01*
X931037Y1632953D01*
X915543Y1627873D01*
X905129Y1617459D01*
X905129Y1607045D01*
X910209Y1596631D01*
X915543Y1591297D01*
X925956Y1586217D01*
X957198Y1575803D01*
X967359Y1570723D01*
X972693Y1565389D01*
X977772Y1554975D01*
X977772Y1539481D01*
X967359Y1529067D01*
X951864Y1523987D01*
X931037Y1523987D01*
X915543Y1529067D01*
X905129Y1539481D01*
X1012062Y1632953D02*
G01*
X1012062Y1523987D01*
X1012062Y1632953D02*
G01*
X1058798Y1632953D01*
X1074546Y1627873D01*
X1079627Y1622539D01*
X1084961Y1612125D01*
X1084961Y1601711D01*
X1079627Y1591297D01*
X1074546Y1586217D01*
X1058798Y1581137D01*
X1012062Y1581137D01*
X1048638Y1581137D02*
G01*
X1084961Y1523987D01*
X1197229Y1607045D02*
G01*
X1191895Y1617459D01*
X1181480Y1627873D01*
X1171067Y1632953D01*
X1150238Y1632953D01*
X1140079Y1627873D01*
X1129664Y1617459D01*
X1124330Y1607045D01*
X1119251Y1591297D01*
X1119251Y1565389D01*
X1124330Y1549895D01*
X1129664Y1539481D01*
X1140079Y1529067D01*
X1150238Y1523987D01*
X1171067Y1523987D01*
X1181480Y1529067D01*
X1191895Y1539481D01*
X1197229Y1549895D01*
D12*
X1792820Y317500D02*
G01*
X1856320Y381000D01*
X1983320Y381000D01*
X2046820Y317500D01*
X2046820Y190500D01*
X1983320Y127000D01*
X1856320Y127000D01*
X1792820Y190500D01*
X586295Y127000D02*
G01*
X522795Y190500D01*
X522820Y317500D01*
X586320Y381000D01*
X713320Y381000D01*
X776820Y317500D01*
X840320Y381000D01*
X967320Y381000D01*
X1030820Y317500D01*
X1094320Y381000D01*
X1221320Y381000D01*
X1284820Y317500D01*
X1348320Y381000D01*
X1475320Y381000D01*
X1538820Y317500D01*
X1602320Y381000D01*
X1729320Y381000D01*
X1792820Y317500D01*
X1792820Y190500D01*
X1729320Y127000D01*
X1602320Y127000D01*
X1538820Y190500D01*
X1538820Y317500D01*
X1538820Y190500D02*
G01*
X1475320Y127000D01*
X1348320Y127000D01*
X1284820Y190500D01*
X1221320Y127000D01*
X1094320Y127000D01*
X1030820Y190500D01*
X967320Y127000D01*
X840320Y127000D01*
X776820Y190500D01*
X713320Y127000D01*
X586320Y127000D01*
X522820Y190500D01*
X522795Y317500D01*
X586295Y381000D01*
X713295Y381000D01*
X776820Y317500D02*
G01*
X776820Y190500D01*
X1284820Y317500D02*
G01*
X1284820Y190500D01*
X1030820Y317500D02*
G01*
X1030820Y190500D01*
X3786695Y126987D02*
G01*
X3913695Y126987D01*
X3977195Y190487D01*
X3913695Y126987D01*
X3786695Y126987D01*
X3723195Y190487D01*
X3659695Y126987D01*
X3532695Y126987D01*
X3469195Y190487D01*
X3405695Y126987D01*
X3278695Y126987D01*
X3215195Y190487D01*
X3151695Y126987D01*
X3024695Y126987D01*
X2961195Y190487D01*
X2897695Y126987D01*
X2770695Y126987D01*
X2707195Y190487D01*
X2643695Y126987D01*
X2516695Y126987D01*
X2453195Y190487D01*
X2389695Y126987D01*
X2262695Y126987D01*
X2199195Y190487D01*
X2199195Y317487D01*
X2262695Y380987D01*
X2389695Y380987D01*
X2453195Y317487D01*
X2516695Y380987D01*
X2643695Y380987D01*
X2707195Y317487D01*
X2770695Y380987D01*
X2897695Y380987D01*
X2961195Y317487D01*
X3024695Y380987D01*
X3151695Y380987D01*
X3215195Y317487D01*
X3278695Y380987D01*
X3405695Y380987D01*
X3469195Y317487D01*
X3532695Y380987D01*
X3659695Y380987D01*
X3723195Y317487D01*
X3786695Y380987D01*
X3913695Y380987D01*
X3977195Y330187D01*
X3977195Y190487D01*
X3913695Y126987D01*
X2707195Y317500D02*
G01*
X2707195Y190500D01*
X2453195Y317500D02*
G01*
X2453195Y190500D01*
X2961195Y317500D02*
G01*
X2961195Y190500D01*
X3469195Y317500D02*
G01*
X3469195Y190500D01*
X3215195Y317500D02*
G01*
X3215195Y190500D01*
X3723195Y317500D02*
G01*
X3723195Y190500D01*
X2899539Y1774177D02*
G01*
X2899539Y1413497D01*
X3371979Y1413497D02*
G01*
X3371979Y1774177D01*
X821309Y1774177D02*
G01*
X821309Y1413497D01*
X1293748Y1413497D02*
G01*
X1293748Y1774177D01*
G75*
G01
X3341500Y1692897D02*
G03X3341500Y1692897I-25400J0D01*
G75*
G01
X1263269Y1692897D02*
G03X1263269Y1692897I-25400J0D01*
M02*
